<svg width="73" height="79" viewBox="0 0 73 79" fill="none" xmlns="http://www.w3.org/2000/svg">
<g clip-path="url(#clip0)">
<path fill-rule="evenodd" clip-rule="evenodd" d="M49.9421 76.7444C53.5605 76.4534 57.1336 76.9263 59.7297 76.1259C63.8456 74.8435 62.9953 71.0145 62.6335 68.7134C62.2716 66.4124 63.9361 66.3032 64.5783 65.703C65.2206 65.1027 65.3382 63.5747 66.3875 62.9199C67.4368 62.265 66.5684 60.5278 66.3875 59.2C66.2066 57.8721 70.2682 57.963 72.3306 57.7538C74.3931 57.5447 71.7336 50.0412 69.3093 42.4832C66.885 34.9252 74.2483 24.7932 62.145 11.1324C50.0416 -2.52845 23.9715 -4.12009 10.0409 9.2588C-3.88973 22.6377 -0.443255 35.7073 3.52787 48.2313C4.8757 52.4969 5.03853 55.6529 4.6767 57.963C4.33296 66.6034 14.1025 66.6852 15.6403 59.391C16.1468 55.8439 15.595 51.9967 13.5416 45.8393C11.7782 41.4859 11.3295 36.7067 12.2516 32.0985C13.1738 27.4903 15.4258 23.2574 18.7266 19.9285C22.0273 16.5996 26.2303 14.3223 30.8107 13.381C35.3911 12.4397 40.1459 12.8761 44.481 14.6358C48.8162 16.3955 52.5396 19.4004 55.1862 23.2753C57.8328 27.1501 59.2853 31.7231 59.3622 36.423C59.4391 41.1229 58.1371 45.7414 55.6187 49.7017C53.1004 53.662 49.4773 56.7885 45.2021 58.6906C39.467 61.692 36.4095 64.0658 34.3471 66.9763C33.4305 68.2997 32.5908 69.6753 31.8323 71.0964C30.2945 74.1432 32.4384 77.7358 34.917 78.7908C37.3955 79.8458 39.8198 76.5443 49.9512 76.7262L49.9421 76.7444Z" fill="url(#paint0_linear)"/>
<path d="M35.6497 55.8802C46.2409 55.8802 54.8269 47.2476 54.8269 36.5986C54.8269 25.9497 46.2409 17.317 35.6497 17.317C25.0584 17.317 16.4725 25.9497 16.4725 36.5986C16.4725 47.2476 25.0584 55.8802 35.6497 55.8802Z" fill="url(#paint1_linear)"/>
<path d="M27.7798 31.5054H27.7708C26.6267 31.5054 25.6993 32.4379 25.6993 33.5881V43.6837C25.6993 44.834 26.6267 45.7665 27.7708 45.7665H27.7798C28.9239 45.7665 29.8513 44.834 29.8513 43.6837V33.5881C29.8513 32.4379 28.9239 31.5054 27.7798 31.5054Z" fill="white"/>
<path d="M35.6497 29.4681H35.6407C34.4966 29.4681 33.5692 30.4006 33.5692 31.5509V43.6838C33.5692 44.8341 34.4966 45.7665 35.6407 45.7665H35.6497C36.7938 45.7665 37.7212 44.8341 37.7212 43.6838V31.5509C37.7212 30.4006 36.7938 29.4681 35.6497 29.4681Z" fill="white"/>
<path d="M43.5286 27.4308H43.5196C42.3755 27.4308 41.4481 28.3633 41.4481 29.5136V43.6837C41.4481 44.834 42.3755 45.7665 43.5196 45.7665H43.5286C44.6727 45.7665 45.6001 44.834 45.6001 43.6837V29.5136C45.6001 28.3633 44.6727 27.4308 43.5286 27.4308Z" fill="white"/>
</g>
<defs>
<linearGradient id="paint0_linear" x1="74.3912" y1="87.0486" x2="1.60772" y2="-2.34309" gradientUnits="userSpaceOnUse">
<stop stop-color="#F4763C"/>
<stop offset="1" stop-color="#FFDE43"/>
</linearGradient>
<linearGradient id="paint1_linear" x1="29.0914" y1="18.4812" x2="42.3342" y2="54.6789" gradientUnits="userSpaceOnUse">
<stop stop-color="#FFDE43"/>
<stop offset="1" stop-color="#F4763C"/>
</linearGradient>
<clipPath id="clip0">
<rect width="73" height="79" fill="white"/>
</clipPath>
</defs>
</svg>
